<svg id="visual" viewBox="0 0 900 600" width="900" height="600" xmlns="http://www.w3.org/2000/svg" xmlns:xlink="http://www.w3.org/1999/xlink" version="1.1"><rect x="0" y="0" width="900" height="600" fill="#001220"></rect><path d="M0 407L21.5 409.8C43 412.7 86 418.3 128.8 417.3C171.7 416.3 214.3 408.7 257.2 402.8C300 397 343 393 385.8 388.8C428.7 384.7 471.3 380.3 514.2 380.7C557 381 600 386 642.8 396.7C685.7 407.3 728.3 423.7 771.2 423C814 422.3 857 404.7 878.5 395.8L900 387L900 601L878.5 601C857 601 814 601 771.2 601C728.3 601 685.7 601 642.8 601C600 601 557 601 514.2 601C471.3 601 428.7 601 385.8 601C343 601 300 601 257.2 601C214.3 601 171.7 601 128.8 601C86 601 43 601 21.5 601L0 601Z" fill="#72c8f1"></path><path d="M0 395L21.5 407.7C43 420.3 86 445.7 128.8 449.7C171.7 453.7 214.3 436.3 257.2 424.3C300 412.3 343 405.7 385.8 406C428.7 406.3 471.3 413.7 514.2 416.3C557 419 600 417 642.8 418.5C685.7 420 728.3 425 771.2 429.8C814 434.7 857 439.3 878.5 441.7L900 444L900 601L878.5 601C857 601 814 601 771.2 601C728.3 601 685.7 601 642.8 601C600 601 557 601 514.2 601C471.3 601 428.7 601 385.8 601C343 601 300 601 257.2 601C214.3 601 171.7 601 128.8 601C86 601 43 601 21.5 601L0 601Z" fill="#66bde5"></path><path d="M0 499L21.5 494.7C43 490.3 86 481.7 128.8 480.3C171.7 479 214.3 485 257.2 484.5C300 484 343 477 385.8 472.8C428.7 468.7 471.3 467.3 514.2 467C557 466.7 600 467.3 642.8 464.5C685.7 461.7 728.3 455.3 771.2 461.8C814 468.3 857 487.7 878.5 497.3L900 507L900 601L878.5 601C857 601 814 601 771.2 601C728.3 601 685.7 601 642.8 601C600 601 557 601 514.2 601C471.3 601 428.7 601 385.8 601C343 601 300 601 257.2 601C214.3 601 171.7 601 128.8 601C86 601 43 601 21.5 601L0 601Z" fill="#5ab2da"></path><path d="M0 500L21.5 505.3C43 510.7 86 521.3 128.8 527.2C171.7 533 214.3 534 257.2 525.3C300 516.7 343 498.3 385.8 493.5C428.7 488.7 471.3 497.3 514.2 500.2C557 503 600 500 642.8 503.7C685.7 507.3 728.3 517.7 771.2 516C814 514.3 857 500.7 878.5 493.8L900 487L900 601L878.5 601C857 601 814 601 771.2 601C728.3 601 685.7 601 642.8 601C600 601 557 601 514.2 601C471.3 601 428.7 601 385.8 601C343 601 300 601 257.2 601C214.3 601 171.7 601 128.8 601C86 601 43 601 21.5 601L0 601Z" fill="#4da7cf"></path><path d="M0 571L21.5 566.3C43 561.7 86 552.3 128.8 549.2C171.7 546 214.3 549 257.2 547.3C300 545.7 343 539.3 385.8 539C428.7 538.7 471.3 544.3 514.2 548.2C557 552 600 554 642.8 557.8C685.7 561.7 728.3 567.3 771.2 562C814 556.7 857 540.3 878.5 532.2L900 524L900 601L878.5 601C857 601 814 601 771.2 601C728.3 601 685.7 601 642.8 601C600 601 557 601 514.2 601C471.3 601 428.7 601 385.8 601C343 601 300 601 257.2 601C214.3 601 171.7 601 128.8 601C86 601 43 601 21.5 601L0 601Z" fill="#409dc4"></path></svg>